<svg id="Слой_1" data-name="Слой 1" xmlns="http://www.w3.org/2000/svg" xmlns:xlink="http://www.w3.org/1999/xlink" viewBox="0 0 80.95 81"><defs><style>.cls-1{fill:none;}.cls-11,.cls-2{fill:#002891;}.cls-2,.cls-20{fill-rule:evenodd;}.cls-3{clip-path:url(#clip-path);}.cls-4{fill:url(#Безымянный_градиент_54);}.cls-5{clip-path:url(#clip-path-2);}.cls-6{fill:url(#Безымянный_градиент_3);}.cls-7{clip-path:url(#clip-path-3);}.cls-8{fill:url(#Безымянный_градиент_2);}.cls-9{clip-path:url(#clip-path-4);}.cls-10{fill:url(#Безымянный_градиент_51);}.cls-12{clip-path:url(#clip-path-5);}.cls-13{fill:url(#Безымянный_градиент_54-2);}.cls-14{clip-path:url(#clip-path-6);}.cls-15{fill:url(#Безымянный_градиент_51-2);}.cls-16{clip-path:url(#clip-path-7);}.cls-17{fill:url(#Безымянный_градиент_2-2);}.cls-18{clip-path:url(#clip-path-8);}.cls-19{fill:url(#Безымянный_градиент_3-2);}.cls-20{fill:#10107a;}</style><clipPath id="clip-path"><path class="cls-1" d="M10.21,10.16A20.44,20.44,0,0,0,7,35.06l4-3.91A15,15,0,0,1,13.61,14c6.18-6.37,15-5.23,21.58-.1,3.17,2.47,6.09,2.65,9.1,1-5-5.19-11.46-9.67-18.75-10.34-.62-.06-1.22-.09-1.82-.09a18.9,18.9,0,0,0-13.51,5.68"/></clipPath><linearGradient id="Безымянный_градиент_54" x1="-318.89" y1="415.08" x2="-316.54" y2="415.08" gradientTransform="matrix(0, -6.49, -8.51, 0, 3556.86, -2041)" gradientUnits="userSpaceOnUse"><stop offset="0" stop-color="#910001"/><stop offset="1" stop-color="#d21301"/></linearGradient><clipPath id="clip-path-2"><path class="cls-1" d="M69.94,50A15,15,0,0,1,67.3,67.16c-6.18,6.38-15,5.23-21.59.1-3.16-2.47-6.08-2.64-9.1-1,5,5.18,11.47,9.66,18.76,10.34A18.9,18.9,0,0,0,70.69,71a20.45,20.45,0,0,0,3.23-24.91l-4,3.92"/></clipPath><linearGradient id="Безымянный_градиент_3" x1="-342.01" y1="349.68" x2="-339.65" y2="349.68" gradientTransform="matrix(-16.69, 0, 0, 12.71, -5630.44, -4384.28)" gradientUnits="userSpaceOnUse"><stop offset="0" stop-color="#124618"/><stop offset="1" stop-color="#74be1e"/></linearGradient><clipPath id="clip-path-3"><path class="cls-1" d="M46.18,7.09q2,2,3.91,4a15,15,0,0,1,17.18,2.64c6.37,6.18,5.23,15,.1,21.58-2.47,3.16-2.65,6.08-1,9.1,5.17-5,9.66-11.47,10.33-18.76a18.85,18.85,0,0,0-5.59-15.32,20.45,20.45,0,0,0-24.9-3.22"/></clipPath><linearGradient id="Безымянный_градиент_2" x1="-380.43" y1="343.07" x2="-378.07" y2="343.07" gradientTransform="matrix(0, 17.03, 12.97, 0, -4388.83, 6481.59)" gradientUnits="userSpaceOnUse"><stop offset="0" stop-color="#002891"/><stop offset="1" stop-color="#0098c5"/></linearGradient><clipPath id="clip-path-4"><path class="cls-1" d="M4.23,55.51A18.89,18.89,0,0,0,9.82,70.82a20.45,20.45,0,0,0,24.91,3.23l-3.91-4a15,15,0,0,1-17.18-2.64c-6.37-6.18-5.23-15-.1-21.58,2.47-3.17,2.64-6.09,1-9.11-5.18,5-9.66,11.47-10.34,18.77"/></clipPath><linearGradient id="Безымянный_градиент_51" x1="-341.18" y1="354.84" x2="-338.82" y2="354.84" gradientTransform="matrix(-17.03, 0, 0, 17.03, -5769.44, -5984)" gradientUnits="userSpaceOnUse"><stop offset="0" stop-color="#f01801"/><stop offset="1" stop-color="#ff4200"/></linearGradient><clipPath id="clip-path-5"><path class="cls-1" d="M54.47,59.68a6.06,6.06,0,1,0,6.06-5.93,6,6,0,0,0-6.06,5.93"/></clipPath><linearGradient id="Безымянный_градиент_54-2" x1="-257.56" y1="509.78" x2="-255.2" y2="509.78" gradientTransform="matrix(0, -2.52, -2.57, 0, 1369.44, -585.53)" xlink:href="#Безымянный_градиент_54"/><clipPath id="clip-path-6"><path class="cls-1" d="M57.26,21a3.68,3.68,0,1,0,3.67-3.75A3.71,3.71,0,0,0,57.26,21"/></clipPath><linearGradient id="Безымянный_градиент_51-2" x1="-251.28" y1="279.74" x2="-248.92" y2="279.74" gradientTransform="matrix(-3.18, 0, 0, 3.18, -734.64, -869.22)" xlink:href="#Безымянный_градиент_51"/><clipPath id="clip-path-7"><path class="cls-1" d="M16.93,61.13a3.68,3.68,0,1,0,3.68-3.75,3.71,3.71,0,0,0-3.68,3.75"/></clipPath><linearGradient id="Безымянный_градиент_2-2" x1="-447.14" y1="248.6" x2="-444.79" y2="248.6" gradientTransform="matrix(0, 3.18, 3.12, 0, -754.71, 1480.03)" xlink:href="#Безымянный_градиент_2"/><clipPath id="clip-path-8"><path class="cls-1" d="M15.2,21.48a6,6,0,1,0,6-6.14,6.08,6.08,0,0,0-6,6.14"/></clipPath><linearGradient id="Безымянный_градиент_3-2" x1="-290.59" y1="315.13" x2="-288.24" y2="315.13" gradientTransform="matrix(-5.21, 0, 0, 5.21, -1486.16, -1619.86)" xlink:href="#Безымянный_градиент_3"/></defs><title>logo</title><path class="cls-2" d="M3.61,38.09a25.35,25.35,0,0,1,4-30.84,23.84,23.84,0,0,1,19.26-7c9.31.86,17.64,8.85,23.91,15.16V16h-.64C44,9.89,35.8,2,26.77,1.11A22.91,22.91,0,0,0,8.23,7.88,24.46,24.46,0,0,0,4.38,37.64a.45.45,0,0,1-.16.61.43.43,0,0,1-.61-.16"/><path class="cls-2" d="M77.45,42.91a25.37,25.37,0,0,1-4,30.84,23.78,23.78,0,0,1-19.26,7c-9.3-.85-17.63-8.84-23.9-15.15V65h.63C37,71.11,45.25,79.05,54.28,79.89a22.94,22.94,0,0,0,18.55-6.77,24.46,24.46,0,0,0,3.84-29.76.44.44,0,0,1,.17-.61.44.44,0,0,1,.61.16"/><path class="cls-2" d="M43.76,2.93A25.37,25.37,0,0,1,74.39,8.34,23.8,23.8,0,0,1,80.51,27.9c-1.29,9.25-9.66,17.21-16.24,23.18l-.64,0,0-.63c6.4-5.8,14.71-13.66,16-22.64A22.91,22.91,0,0,0,73.73,8.94,24.48,24.48,0,0,0,44.17,3.72a.45.45,0,1,1-.41-.79"/><path class="cls-2" d="M37,78.07A25.35,25.35,0,0,1,6.36,72.66,23.75,23.75,0,0,1,.24,53.1c1.28-9.25,9.65-17.21,16.24-23.18l.63,0,0,.63c-6.4,5.8-14.71,13.66-16,22.64A22.92,22.92,0,0,0,7,72.06a24.45,24.45,0,0,0,29.55,5.22.45.45,0,0,1,.61.19.44.44,0,0,1-.19.6"/><g class="cls-3"><rect class="cls-4" x="2.31" y="4.48" width="41.98" height="30.58"/></g><g class="cls-5"><rect class="cls-6" x="36.61" y="46.07" width="41.98" height="31.03"/></g><g class="cls-7"><rect class="cls-8" x="46.18" y="4.26" width="31.02" height="40.14"/></g><g class="cls-9"><rect class="cls-10" x="3.7" y="36.74" width="31.03" height="41.98"/></g><rect class="cls-11" x="24.81" y="18.54" width="2.24" height="13.52" transform="translate(-10.29 26.04) rotate(-45.47)"/><rect class="cls-11" x="50.6" y="24.24" width="12.63" height="1.34" transform="translate(-1.13 47.07) rotate(-44.53)"/><rect class="cls-11" x="55.39" y="48.96" width="2.24" height="13.52" transform="translate(-22.85 56.92) rotate(-45.47)"/><rect class="cls-11" x="18.32" y="56.5" width="12.63" height="1.34" transform="translate(-33.03 33.7) rotate(-44.54)"/><path class="cls-2" d="M37,36l-.78.78c-.22,0-.94-.4-1-.38l-.86,1.42.85.74c0,.16-.22.63-.29,1.1l-1.11.16v1.71l.6.1.44.09c.11,0,.11.34.18.59l.15.51-.85.71L35.09,45a9.61,9.61,0,0,0,1-.34l.12.12.71.68-.39,1,1.46.84.71-.79.53.15.58.13.18,1c.14.08,1.31,0,1.68,0,0-.23.09-1,.28-1.09l.21-.05c.36-.08.53-.15.83-.23.23.27.46.56.67.84l1.44-.82c0-.3-.32-.79-.32-1.07.32-.25.5-.51.81-.8l1,.38.43-.71a7.28,7.28,0,0,0,.41-.73l-.82-.69L47,41.77A5.24,5.24,0,0,1,48,41.58V39.89L47,39.67l-.32-1.09c.28-.25.6-.44.85-.71-.08-.2-.65-1.12-.83-1.46l-1.06.38c-.28-.24-.5-.54-.8-.77.07-.32.37-.81.4-1.11-.17,0-1.15-.68-1.45-.81L43,35a1.61,1.61,0,0,1-.51-.16L42,34.71l-.15-1-.11-.21H40.17L40,33.8l-.17,1c-.27-.12-.81.17-1.07.23l-.35-.47-.35-.42-.39.21-.74.41-.35.21Zm-4.6,4.59a8.51,8.51,0,1,1,17,.31,8.71,8.71,0,0,1-2.6,5.94,8.5,8.5,0,0,1-14.42-6.25"/><g class="cls-12"><rect class="cls-13" x="54.47" y="53.75" width="12.1" height="11.87"/></g><g class="cls-14"><rect class="cls-15" x="57.26" y="17.2" width="7.35" height="7.5"/></g><g class="cls-16"><rect class="cls-17" x="16.93" y="57.38" width="7.35" height="7.5"/></g><g class="cls-18"><rect class="cls-19" x="15.2" y="15.34" width="12.04" height="12.27"/></g><path class="cls-20" d="M33.19,31.39l-1.54,1.53c-.42-.1-1.85-.78-2-.75A23.13,23.13,0,0,0,27.9,35l1.68,1.47c0,.3-.44,1.25-.57,2.17l-2.19.31v3.37L28,42.5l.85.17c.23.09.23.66.36,1.17.1.36.2.7.31,1-.36.37-1.45,1-1.69,1.39l1.61,2.85c.53,0,1.42-.55,2.05-.68l.24.22A8.86,8.86,0,0,0,33.14,50l-.77,2a24.36,24.36,0,0,0,2.86,1.66l1.42-1.56c.28,0,.73.22,1,.3s.72.17,1.14.26l.35,2c.28.17,2.58,0,3.32.1,0-.46.18-2,.55-2.15l.41-.1c.72-.15,1-.3,1.64-.46.46.54.91,1.12,1.33,1.66l2.84-1.61c0-.61-.63-1.56-.63-2.12.62-.49,1-1,1.59-1.58l2,.75A7.08,7.08,0,0,0,53,47.82a14.26,14.26,0,0,0,.83-1.44A9.41,9.41,0,0,0,52.25,45l.61-2.22A9.53,9.53,0,0,1,55,42.44V39.09a18.68,18.68,0,0,1-2.08-.43l-.64-2.15a21,21,0,0,0,1.68-1.39c-.16-.41-1.29-2.22-1.63-2.88L50.22,33c-.55-.48-1-1-1.58-1.52.14-.64.72-1.59.78-2.19-.33-.07-2.26-1.34-2.85-1.59l-1.44,1.74a3.3,3.3,0,0,1-1-.33A4.47,4.47,0,0,0,43,28.88L42.71,27c0-.27,0-.43-.24-.43h-3c-.27,0-.23.26-.27.53L38.87,29c-.53-.23-1.6.35-2.1.47-.22-.33-.44-.6-.69-.93a3.76,3.76,0,0,0-.7-.84,5.28,5.28,0,0,0-.77.42l-1.45.81a3.7,3.7,0,0,0-.69.41ZM31,40.53a9.93,9.93,0,1,1,19.86.37,10.14,10.14,0,0,1-3,6.93A9.93,9.93,0,0,1,31,40.53"/></svg>